<svg width="32" height="40" viewBox="0 0 32 40" fill="none" xmlns="http://www.w3.org/2000/svg">
<path d="M0 10C0 4.47715 4.47715 0 10 0H32V30C32 35.5228 27.5228 40 22 40H0V10Z" fill="#225DAC"/>
<path d="M12.9 12.2332C12.6 12.3665 12.05 12.7499 11.65 13.1165C9.33334 15.1999 9.76667 18.8999 12.5333 20.4165C13.2833 20.8332 13.6 20.8999 14.6667 20.8999C15.7333 20.8999 16.05 20.8332 16.8 20.4165C19.5667 18.8999 20 15.1999 17.6667 13.1165C17.2833 12.7499 16.7167 12.3665 16.4 12.2332C15.7 11.9332 13.5833 11.9332 12.9 12.2332ZM15.55 14.0665C16.5167 14.4832 17.05 15.2165 17.1333 16.2499C17.2 17.0332 17.15 17.2665 16.7833 17.8165C15.75 19.3665 13.6 19.3665 12.5333 17.8165C12.2 17.3499 12.15 17.0832 12.2 16.2832C12.2667 15.5165 12.3667 15.2332 12.7667 14.8165C13.6333 13.8832 14.5667 13.6332 15.55 14.0665Z" fill="white"/>
<path d="M23.25 18.8332L21.7667 20.3165L21.05 19.6665C20.25 18.9165 19.8333 18.8332 19.3333 19.3332C18.7833 19.8832 18.9333 20.2832 20.1167 21.5165C21.7167 23.1832 21.75 23.1665 24.3 20.6165C25.4167 19.4999 26.3333 18.4499 26.3333 18.2832C26.3333 17.6499 26.0167 17.3332 25.3667 17.3332C24.8 17.3332 24.6 17.4832 23.25 18.8332Z" fill="white"/>
<path d="M12.7333 21.9165C10.8 22.3332 9.38334 23.3332 8.73334 24.7499C8.25 25.7499 8.23334 26.5165 8.63334 26.8832C9.31667 27.4999 10.3333 26.9999 10.3333 26.0499C10.3333 25.4999 11.2167 24.5999 12.2 24.1499C12.9333 23.8165 13.3667 23.7499 14.6667 23.7499C15.9667 23.7499 16.4 23.8165 17.1333 24.1499C18.1833 24.6165 19 25.4999 19 26.1499C19 27.0832 20.2167 27.5332 20.7333 26.7999C21.1 26.2832 21.0667 25.7332 20.6 24.7499C19.5167 22.3999 16.1167 21.1832 12.7333 21.9165Z" fill="white"/>
</svg>
